<svg width="317" height="224" xmlns="http://www.w3.org/2000/svg" xmlns:xlink="http://www.w3.org/1999/xlink"><defs><path id="a" d="M0 0h316.462v223.737H0z"/></defs><g style="mix-blend-mode:multiply" fill="none" fill-rule="evenodd" opacity=".1"><mask id="b" fill="#fff"><use xlink:href="#a"/></mask><g mask="url(#b)" fill="#000" fill-rule="nonzero"><path d="M67.322 83.098c4.849 0 4.849-7.517 0-7.517s-4.849 7.517 0 7.517zM98.333 41.944c4.849 0 4.849-7.517 0-7.517s-4.849 7.517 0 7.517zM71.269 149.621c4.849 0 4.849-7.516 0-7.516-4.85 0-4.85 7.516 0 7.516zM8.683 162.588c4.85 0 4.85-7.517 0-7.517-4.849 0-4.849 7.517 0 7.517zM27.29 194.722h.564a3.77 3.77 0 0 0 3.758-3.758 3.77 3.77 0 0 0-3.758-3.759h-.564a3.77 3.77 0 0 0-3.76 3.759c0 2.067 1.73 3.758 3.76 3.758zM94.95 200.36h.564a3.77 3.77 0 0 0 3.759-3.759 3.77 3.77 0 0 0-3.76-3.758h-.563a3.77 3.77 0 0 0-3.759 3.758c0 2.067 1.73 3.759 3.759 3.759zM121.45 133.836c4.85 0 4.85-7.517 0-7.517-4.849 0-4.849 7.517 0 7.517zM132.163 74.642c4.85 0 4.85-7.517 0-7.517-4.849 0-4.849 7.517 0 7.517zM22.215 54.346c4.85 0 4.85-7.516 0-7.516-4.849 0-4.849 7.516 0 7.516zM6.428 9.81c4.849 0 4.849-7.517 0-7.517-4.85 0-4.85 7.516 0 7.516zM188.547 23.903h.564a3.77 3.77 0 0 0 3.759-3.758 3.77 3.77 0 0 0-3.76-3.758h-.563a3.77 3.77 0 0 0-3.76 3.758c0 2.067 1.73 3.758 3.76 3.758zM190.238 77.46c4.85 0 4.85-7.516 0-7.516-4.849 0-4.849 7.516 0 7.516zM252.824 73.514c4.85 0 4.85-7.517 0-7.517-4.849 0-4.849 7.517 0 7.517zM241.547 18.266c4.85 0 4.85-7.517 0-7.517-4.849 0-4.849 7.517 0 7.517zM286.466 33.111v-.563a3.77 3.77 0 0 0-3.759-3.759 3.77 3.77 0 0 0-3.758 3.759v.563a3.77 3.77 0 0 0 3.758 3.759 3.77 3.77 0 0 0 3.76-3.759zM308.268 92.306v.564a3.77 3.77 0 0 0 3.759 3.758 3.77 3.77 0 0 0 3.759-3.758v-.564a3.77 3.77 0 0 0-3.76-3.758c-2.066 0-3.758 1.729-3.758 3.758zM222.377 107.34c4.849 0 4.849-7.517 0-7.517s-4.849 7.517 0 7.517zM186.291 135.528c4.85 0 4.85-7.517 0-7.517-4.849 0-4.849 7.517 0 7.517zM263.537 136.655c4.849 0 4.849-7.517 0-7.517s-4.849 7.517 0 7.517zM306.389 165.97h.563a3.77 3.77 0 0 0 3.76-3.758 3.77 3.77 0 0 0-3.76-3.758h-.563a3.77 3.77 0 0 0-3.76 3.758 3.77 3.77 0 0 0 3.76 3.758zM256.771 172.736h.564a3.77 3.77 0 0 0 3.759-3.759 3.77 3.77 0 0 0-3.76-3.758h-.563a3.77 3.77 0 0 0-3.759 3.758c0 2.067 1.73 3.759 3.759 3.759zM218.994 153.568h.564a3.77 3.77 0 0 0 3.759-3.759 3.77 3.77 0 0 0-3.76-3.758h-.563a3.77 3.77 0 0 0-3.759 3.758c0 2.068 1.73 3.759 3.759 3.759zM204.334 186.266c4.85 0 4.85-7.517 0-7.517-4.849 0-4.849 7.517 0 7.517zM127.652 184.01c4.85 0 4.85-7.516 0-7.516-4.848 0-4.848 7.517 0 7.517zM168.813 200.923c4.849 0 4.849-7.516 0-7.516-4.85 0-4.85 7.516 0 7.516zM216.588 222.384l.564-.564c1.466-1.466 1.466-3.871 0-5.3-1.466-1.465-3.872-1.465-5.3 0l-.564.565c-1.466 1.465-1.466 3.87 0 5.299a3.814 3.814 0 0 0 5.3 0zM295.525 216.709c.301.225.64.3.978.45.676.226 1.428.151 2.105 0 .714-.15 1.39-.6 1.88-1.09.45-.413.976-1.277 1.09-1.878.187-.902.187-1.165 0-2.068-.076-.375-.226-.751-.452-1.014a10.527 10.527 0 0 0-.601-.752 3.879 3.879 0 0 0-1.654-.977 3.879 3.879 0 0 0-2.895.376 3.864 3.864 0 0 0-1.729 2.255c-.037.338-.075.676-.15 1.015 0 .676.188 1.315.526 1.879 0 .037.038.037.038.075-.113-.3-.263-.601-.376-.902 0 .037 0 .037.037.075-.037-.338-.075-.676-.15-1.015v.075a9.44 9.44 0 0 1 .15-1.014v.075c.113-.3.264-.602.376-.902 0 .037-.037.075-.037.113.188-.264.376-.489.601-.752l-.113.113c.264-.188.49-.376.752-.602-.037.038-.075.038-.113.038.301-.113.602-.263.903-.376h-.076a9.445 9.445 0 0 0 1.015-.15h-.075c.338.037.677.075 1.015.15-.038 0-.038 0-.075-.038.3.113.601.264.902.376-.038 0-.038-.037-.075-.037-.3-.113-.602-.263-.902-.376a3.59 3.59 0 0 0-1.993 0 3.864 3.864 0 0 0-2.255 1.729c-.526.864-.639 1.917-.376 2.894.113.3.263.601.376.902.338.563.79 1.014 1.353 1.353zM63.939 222.91c4.849 0 4.849-7.517 0-7.517s-4.849 7.517 0 7.517z"/></g><g mask="url(#b)" fill="#000" fill-rule="nonzero"><path d="M23.005 36.268c-3.008-6.502-6.842-12.553-11.315-18.115-1.015-1.24-2.744-.601-3.533.451-3.12 4.134-6.24 8.306-9.36 12.44-3.721-3.645-7.255-7.479-10.525-11.538-.864-1.09-2.932-.752-3.533.451-2.895 5.938-5.526 12.027-7.819 18.228-1.015 2.744 3.346 3.909 4.36 1.203a194.448 194.448 0 0 1 5.94-14.17A132.682 132.682 0 0 0-2.518 36.006c1.165 1.09 2.668.714 3.533-.45 3.045-4.06 6.09-8.081 9.096-12.14 3.534 4.698 6.541 9.772 9.022 15.108 1.203 2.669 5.112.376 3.872-2.255zM91.793 181.08c6.502-3.045 12.517-6.841 18.117-11.351 1.24-1.015.602-2.744-.45-3.533-4.135-3.12-8.308-6.239-12.443-9.358 3.647-3.721 7.48-7.254 11.54-10.524 1.09-.864.752-2.931-.45-3.533-5.94-2.894-12.03-5.525-18.232-7.817-2.744-1.015-3.909 3.345-1.202 4.36a194.505 194.505 0 0 1 14.17 5.938 132.685 132.685 0 0 0-10.787 10.26c-1.09 1.165-.715 2.669.45 3.533 4.06 3.044 8.082 6.089 12.142 9.095-4.699 3.533-9.773 6.54-15.11 9.02-2.67 1.24-.377 5.15 2.255 3.91zM188.772 195.136c3.045 6.502 6.842 12.515 11.352 18.115 1.015 1.24 2.744.601 3.534-.451 3.12-4.134 6.24-8.306 9.36-12.44 3.72 3.645 7.254 7.479 10.524 11.538.865 1.09 2.932.752 3.534-.451 2.894-5.938 5.525-12.027 7.818-18.228 1.015-2.744-3.345-3.909-4.36-1.203a194.448 194.448 0 0 1-5.94 14.17 132.682 132.682 0 0 0-10.261-10.787c-1.165-1.09-2.669-.714-3.533.45-3.045 4.06-6.09 8.081-9.097 12.14-3.533-4.698-6.54-9.772-9.021-15.108-1.24-2.669-5.113-.376-3.91 2.255zM339.467 36.268c-3.045-6.502-6.841-12.515-11.352-18.115-1.015-1.24-2.744-.601-3.533.451-3.12 4.134-6.24 8.306-9.36 12.44-3.721-3.645-7.255-7.479-10.525-11.538-.865-1.09-2.932-.752-3.533.451-2.895 5.938-5.526 12.027-7.819 18.228-1.015 2.744 3.346 3.909 4.36 1.203a194.448 194.448 0 0 1 5.94-14.17 132.682 132.682 0 0 0 10.261 10.787c1.166 1.09 2.67.714 3.534-.45 3.044-4.06 6.09-8.081 9.096-12.14 3.534 4.698 6.54 9.772 9.022 15.108 1.24 2.669 5.15.376 3.909-2.255zM189.9 49.874c-3.045-6.502-6.841-12.516-11.352-18.116-1.015-1.24-2.744-.601-3.533.451-3.12 4.135-6.24 8.306-9.36 12.44-3.721-3.645-7.255-7.479-10.525-11.538-.864-1.09-2.932-.751-3.533.451-2.895 5.939-5.526 12.027-7.819 18.229-1.015 2.743 3.346 3.908 4.36 1.202a194.448 194.448 0 0 1 5.94-14.169 132.682 132.682 0 0 0 10.261 10.787c1.166 1.09 2.67.714 3.534-.451 3.045-4.06 6.09-8.08 9.096-12.14 3.534 4.698 6.54 9.772 9.022 15.109 1.24 2.63 5.15.338 3.909-2.255zM281.129 110.234c-3.045-6.502-6.842-12.516-11.352-18.116-1.015-1.24-2.744-.601-3.534.451-3.12 4.134-6.24 8.306-9.36 12.44-3.72-3.645-7.254-7.479-10.524-11.538-.865-1.09-2.932-.752-3.534.451-2.894 5.938-5.525 12.027-7.818 18.228-1.015 2.744 3.345 3.91 4.36 1.203a194.448 194.448 0 0 1 5.94-14.17 132.682 132.682 0 0 0 10.261 10.787c1.165 1.09 2.669.715 3.533-.45 3.045-4.06 6.09-8.081 9.097-12.14 3.533 4.698 6.54 9.772 9.021 15.109 1.278 2.63 5.15.338 3.91-2.255zM52.324-1.353c-.226-6.502-5.112-11.125-11.465-11.613-7.405-.602-13.983 5.374-14.735 12.553-.037.112-.037.225-.037.375v.376c0 3.683 1.616 7.141 4.323 9.622 3.044 2.78 7.104 3.495 11.05 2.856 6.73-1.165 11.127-7.63 10.864-14.169zm-10.375 9.32A8.326 8.326 0 0 1 30.598-.074c.375-4.961 4.961-8.381 9.735-8.457 4.172-.037 7.18 3.082 7.48 7.141.301 4.097-2.03 7.93-5.864 9.359zM271.243 36.268c-.226-6.502-5.112-11.124-11.465-11.613-7.405-.601-13.983 5.375-14.735 12.553-.037.113-.037.226-.037.376v.376c0 3.683 1.616 7.14 4.322 9.621 3.045 2.781 7.105 3.496 11.052 2.857 6.728-1.166 11.088-7.63 10.863-14.17zm-10.375 9.321a8.326 8.326 0 0 1-11.352-8.043c.376-4.96 4.962-8.38 9.736-8.456 4.172-.038 7.18 3.082 7.48 7.14.3 4.098-2.03 7.931-5.864 9.36zM118.368 104.107c-.226-6.502-5.112-11.124-11.465-11.613-7.405-.564-13.945 5.412-14.735 12.553-.037.113-.037.225-.037.376v.376c0 3.683 1.616 7.14 4.323 9.621 3.044 2.781 7.104 3.495 11.05 2.857 6.692-1.166 11.09-7.63 10.864-14.17zm-10.375 9.321a8.326 8.326 0 0 1-11.351-8.043c.375-4.96 4.961-8.381 9.735-8.456 4.172-.038 7.18 3.082 7.48 7.14.263 4.097-2.03 7.931-5.864 9.36zM284.361 187.581c-.225-6.502-5.112-11.125-11.464-11.613-7.405-.564-13.946 5.412-14.735 12.553-.038.113-.038.225-.038.376v.375c0 3.684 1.616 7.141 4.323 9.622 3.045 2.781 7.104 3.495 11.051 2.856 6.729-1.165 11.126-7.63 10.863-14.169zm-10.337 9.321a8.326 8.326 0 0 1-11.352-8.043c.376-4.961 4.962-8.381 9.736-8.456 4.172-.038 7.18 3.082 7.48 7.14.263 4.097-2.067 7.93-5.864 9.359zM52.324 222.384c-.226-6.502-5.112-11.125-11.465-11.614-7.405-.563-13.945 5.413-14.735 12.553-.037.113-.037.226-.037.376v.376c0 3.683 1.616 7.141 4.323 9.622 3.044 2.78 7.104 3.495 11.05 2.856 6.73-1.165 11.127-7.63 10.864-14.17zm-10.375 9.32a8.326 8.326 0 0 1-11.351-8.042c.375-4.961 4.961-8.381 9.735-8.457 4.172-.037 7.18 3.082 7.48 7.141.301 4.097-2.03 7.93-5.864 9.359zM89.95-9.246c-4.134.263-8.645 1.579-11.84 4.285-3.721 3.12-4.285 7.968-1.09 11.65 2.48 2.857 8.044 5.413 6.728 9.998-.526 1.842-2.48 3.157-4.022 4.134-2.255 1.429-4.811 2.556-7.48 2.782-2.894.225-2.894 4.735 0 4.51 8.044-.677 19.734-7.667 15.036-17.1-.902-1.843-2.519-3.383-4.022-4.736C81.719 4.886 78.9 3.345 79.35.94c.79-3.947 7.218-5.412 10.525-5.638 2.932-.225 2.97-4.736.076-4.548zM285.865 8.832c-.263-4.134-1.579-8.644-4.285-11.839-3.12-3.72-7.97-4.284-11.653-1.09-2.857 2.48-5.413 8.043-9.999 6.728-1.841-.526-3.157-2.48-4.134-4.022-1.429-2.255-2.556-4.81-2.782-7.479-.225-2.894-4.736-2.894-4.51 0 .676 8.043 7.668 19.732 17.102 15.034 1.842-.902 3.383-2.518 4.737-4.022 1.39-1.54 2.932-4.36 5.337-3.908 3.947.789 5.413 7.216 5.639 10.523.225 2.97 4.736 2.97 4.548.075zM285.865 232.57c-.263-4.135-1.579-8.645-4.285-11.84-3.12-3.72-7.97-4.284-11.653-1.09-2.857 2.48-5.413 8.043-9.999 6.728-1.841-.526-3.157-2.48-4.134-4.022-1.429-2.255-2.556-4.81-2.782-7.479-.225-2.894-4.736-2.894-4.51 0 .676 8.043 7.668 19.732 17.102 15.034 1.842-.902 3.383-2.518 4.737-4.022 1.39-1.54 2.932-4.36 5.337-3.909 3.947.79 5.413 7.217 5.639 10.524.225 2.97 4.736 2.97 4.548.075zM8.833 109.03c-4.134.264-8.645 1.58-11.84 4.285-3.721 3.12-4.285 7.968-1.09 11.651 2.48 2.82 8.044 5.375 6.728 9.96-.526 1.842-2.48 3.157-4.022 4.134-2.255 1.429-4.811 2.556-7.48 2.782-2.894.225-2.894 4.735 0 4.51 8.044-.677 19.734-7.667 15.036-17.101-.903-1.842-2.519-3.383-4.022-4.736-1.542-1.39-4.36-2.931-3.91-5.336.79-3.947 7.217-5.413 10.525-5.638 2.97-.188 2.97-4.698.075-4.51zM171.18 177.885c-.262-4.135-1.578-8.645-4.285-11.84-3.12-3.72-7.968-4.284-11.652-1.09-2.857 2.481-5.413 8.044-9.999 6.728-1.842-.526-3.157-2.48-4.135-4.021-1.428-2.255-2.556-4.811-2.781-7.48-.226-2.893-4.736-2.893-4.51 0 .676 8.044 7.667 19.732 17.102 15.034 1.842-.902 3.383-2.518 4.736-4.021 1.391-1.541 2.932-4.36 5.338-3.91 3.947.79 5.413 7.217 5.638 10.524.226 2.97 4.737 3.007 4.549.076zM325.296 109.03c-4.135.264-8.646 1.58-11.84 4.285-3.722 3.12-4.286 7.968-1.09 11.651 2.48 2.857 8.043 5.413 6.728 9.998-.527 1.841-2.481 3.157-4.022 4.134-2.256 1.428-4.812 2.556-7.48 2.781-2.895.226-2.895 4.736 0 4.51 8.043-.676 19.734-7.667 15.035-17.1-.902-1.842-2.518-3.383-4.022-4.736-1.541-1.39-4.36-2.932-3.91-5.337.79-3.946 7.218-5.412 10.526-5.637 2.97-.226 2.97-4.736.075-4.548zM89.95 214.454c-4.134.263-8.645 1.578-11.84 4.284-3.721 3.12-4.285 7.968-1.09 11.651 2.48 2.857 8.044 5.412 6.728 9.998-.526 1.841-2.48 3.157-4.022 4.134-2.255 1.428-4.811 2.556-7.48 2.781-2.894.226-2.894 4.736 0 4.51 8.044-.676 19.734-7.667 15.036-17.1-.902-1.842-2.519-3.383-4.022-4.736-1.541-1.39-4.36-2.932-3.91-5.337.79-3.946 7.218-5.412 10.525-5.638 2.932-.188 2.97-4.698.076-4.547zM171.218 8.306l-14.622.338c2.18-2.555 4.36-5.074 6.54-7.63 2.97-3.457 5.902-6.915 8.12-10.899.79-1.428-.188-3.457-1.955-3.382-5.901.188-11.765.376-17.667.601-2.894.113-2.894 4.623 0 4.51l13.457-.45c-1.729 2.442-3.684 4.735-5.638 6.99-3.158 3.683-6.315 7.366-9.51 11.05-1.203 1.428-.489 3.908 1.579 3.833l19.621-.45c2.97-.076 2.97-4.586.075-4.511zM63.713 121.32l-14.622.34c2.18-2.557 4.36-5.075 6.54-7.63 2.97-3.458 5.902-6.916 8.12-10.9.79-1.428-.188-3.458-1.955-3.382-5.901.188-11.765.375-17.666.601-2.895.113-2.895 4.623 0 4.51l13.456-.45c-1.729 2.442-3.683 4.735-5.638 6.99a2486.609 2486.609 0 0 1-9.51 11.05c-1.203 1.428-.489 3.908 1.579 3.833l19.621-.451c2.97-.075 3.007-4.585.075-4.51zM133.404 198.706l.338 14.62c-2.556-2.18-5.075-4.36-7.63-6.54-3.459-2.969-6.917-5.9-10.901-8.118-1.429-.789-3.459.188-3.384 1.955.188 5.9.376 11.764.602 17.664.113 2.894 4.623 2.894 4.51 0l-.45-13.455c2.443 1.73 4.736 3.683 6.991 5.638 3.684 3.157 7.368 6.314 11.051 9.509 1.429 1.202 3.91.488 3.834-1.579l-.45-19.619c-.076-2.969-4.587-2.969-4.511-.075zM108.745 51.753l.338 14.62c-2.556-2.18-5.074-4.36-7.63-6.54-3.458-2.969-6.916-5.9-10.9-8.118-1.43-.789-3.46.188-3.384 1.955.188 5.9.376 11.764.601 17.664.113 2.894 4.624 2.894 4.511 0l-.45-13.455c2.442 1.73 4.735 3.683 6.99 5.638 3.684 3.157 7.368 6.314 11.052 9.509 1.428 1.202 3.91.488 3.834-1.579l-.451-19.619c-.075-2.969-4.586-2.969-4.51-.075zM200.463 94.636l.338 14.62c-2.556-2.18-5.075-4.36-7.63-6.54-3.459-2.968-6.917-5.9-10.902-8.117-1.428-.79-3.458.188-3.383 1.954.188 5.9.376 11.764.602 17.664.113 2.894 4.623 2.894 4.51 0l-.45-13.455c2.443 1.73 4.736 3.684 6.991 5.638 3.684 3.157 7.367 6.314 11.051 9.509 1.429 1.202 3.91.488 3.834-1.579l-.45-19.619c-.076-3.006-4.587-3.006-4.511-.075zM210.762 59.495l14.622-.338c-2.18 2.556-4.36 5.074-6.54 7.63-2.97 3.457-5.902 6.915-8.12 10.899-.789 1.428.188 3.458 1.955 3.382 5.901-.187 11.765-.375 17.667-.6 2.894-.114 2.894-4.624 0-4.511-4.473.15-8.984.3-13.457.451 1.73-2.443 3.684-4.736 5.638-6.99 3.158-3.684 6.315-7.367 9.51-11.05 1.203-1.428.489-3.909-1.578-3.834l-19.622.451c-3.007.075-3.007 4.585-.075 4.51zM171.218 232.043l-14.622.338c2.18-2.555 4.36-5.074 6.54-7.63 2.97-3.457 5.902-6.915 8.12-10.899.79-1.428-.188-3.457-1.955-3.382-5.901.188-11.765.376-17.667.601-2.894.113-2.894 4.623 0 4.51l13.457-.45c-1.729 2.442-3.684 4.735-5.638 6.99-3.158 3.683-6.315 7.366-9.51 11.05-1.203 1.428-.489 3.908 1.579 3.833l19.621-.451c2.97-.075 2.97-4.585.075-4.51zM132.802 10.072c-2.97 6.803-4.022 14.245-6.54 21.16a287.353 287.353 0 0 1-14.435-17.25c-.751-.978-1.917-1.504-3.082-.828-.977.564-1.579 2.105-.827 3.082 5.526 7.141 11.315 14.094 17.48 20.709.901.977 2.931.864 3.533-.451 3.495-7.78 4.36-16.387 7.78-24.166 1.128-2.631-2.744-4.924-3.909-2.256zM272.145 159.694c4.774-5.675 7.894-12.515 12.292-18.454 3.232 6.765 6.24 13.643 8.946 20.634.45 1.127 1.428 1.992 2.744 1.654 1.09-.264 2.105-1.579 1.654-2.744-3.27-8.419-6.88-16.725-10.864-24.843-.601-1.203-2.593-1.654-3.533-.564-5.563 6.465-8.833 14.47-14.321 20.972-1.88 2.255 1.202 5.562 3.082 3.345zM165.73 138.234c-6.803-2.97-14.246-4.022-21.162-6.54a287.374 287.374 0 0 1 17.253-14.432c.977-.752 1.504-1.917.827-3.082-.564-.977-2.105-1.579-3.082-.827-7.142 5.525-14.096 11.313-20.712 17.477-.977.902-.865 2.931.451 3.532 7.781 3.496 16.389 4.36 24.17 7.78 2.594 1.128 4.924-2.743 2.255-3.908zM301.352 58.443c-2.97 6.803-4.022 14.244-6.54 21.16a287.353 287.353 0 0 1-14.435-17.251c-.752-.978-1.917-1.504-3.082-.827-.978.564-1.58 2.105-.827 3.082 5.525 7.14 11.314 14.094 17.479 20.708.902.978 2.932.865 3.533-.45 3.496-7.78 4.36-16.387 7.78-24.167 1.129-2.63-2.743-4.924-3.908-2.255zM30.184 166.647c2.97-6.803 4.022-14.244 6.54-21.16a287.353 287.353 0 0 1 14.435 17.251c.752.977 1.917 1.504 3.082.827.977-.564 1.579-2.105.827-3.082-5.526-7.14-11.314-14.094-17.479-20.709-.902-.977-2.932-.864-3.533.452-3.496 7.78-4.36 16.386-7.781 24.166-1.128 2.593 2.744 4.886 3.909 2.255zM62.022 52.542H49.016a301.86 301.86 0 0 1-.902-21.798c0-2.894-4.51-2.894-4.51 0 .037 8.043.413 16.048 1.09 24.053.112 1.24.94 2.255 2.255 2.255h15.073c2.894 0 2.894-4.51 0-4.51zM148.477 95.99V82.984a301.984 301.984 0 0 1 21.802-.902c2.894 0 2.894-4.51 0-4.51-8.045.038-16.051.414-24.058 1.09-1.24.113-2.255.94-2.255 2.255V95.99c0 2.894 4.51 2.894 4.51 0zM250.005 153.568h-13.006a301.86 301.86 0 0 1-.902-21.799c0-2.894-4.51-2.894-4.51 0 .037 8.043.413 16.048 1.09 24.054.112 1.24.94 2.255 2.255 2.255h15.073c2.894 0 2.894-4.51 0-4.51zM67.585 178.11v13.004c-7.255.564-14.547.865-21.802.902-2.894 0-2.894 4.548 0 4.51 8.045-.037 16.051-.413 24.057-1.09 1.24-.113 2.256-.94 2.256-2.255v-15.07c0-2.932-4.51-2.932-4.51 0zM31.688 65.885c-.376 4.397-.64 8.832-1.128 13.23-.451 3.908-2.18 7.741-6.578 7.817-1.73.037-3.571-.188-5.225-.677-2.105-.601-2.443-2.819-2.932-4.66-1.128-4.51-1.316-9.208-.827-13.831.3-2.894-4.21-2.857-4.51 0-.564 5.675-.076 11.463 1.503 16.95 1.579 5.45 6.277 6.39 11.277 6.69 5.375.338 9.059-2.932 10.863-7.742 1.015-2.706 1.052-5.788 1.278-8.645.263-3.044.489-6.088.752-9.132.263-2.932-4.248-2.894-4.473 0zM190.426 166.722c.376-4.397.64-8.832 1.128-13.23.451-3.908 2.18-7.742 6.578-7.817 1.73-.037 3.571.188 5.225.677 2.105.601 2.443 2.818 2.932 4.66 1.128 4.51 1.315 9.208.827 13.831-.3 2.894 4.21 2.856 4.51 0 .564-5.675.076-11.463-1.503-16.95-1.579-5.45-6.277-6.39-11.277-6.69-5.375-.339-9.059 2.931-10.863 7.742-1.015 2.706-1.053 5.788-1.278 8.644-.263 3.045-.489 6.089-.752 9.133-.3 2.894 4.21 2.857 4.473 0zM11.69 198.932c-4.398-.376-8.833-.64-13.231-1.128-3.91-.451-7.744-2.18-7.819-6.577-.037-1.729.188-3.57.677-5.224.601-2.105 2.82-2.443 4.661-2.932 4.51-1.127 9.21-1.315 13.833-.827 2.894.301 2.857-4.21 0-4.51-5.676-.564-11.465-.075-16.953 1.504-5.45 1.578-6.39 6.276-6.69 11.275-.34 5.374 2.931 9.057 7.743 10.861 2.706 1.015 5.788 1.053 8.645 1.278 3.045.263 6.09.489 9.134.752 2.895.263 2.895-4.247 0-4.472zM328.153 198.932c-4.398-.376-8.834-.64-13.232-1.128-3.909-.451-7.743-2.18-7.818-6.577-.038-1.729.188-3.57.676-5.224.602-2.105 2.82-2.443 4.661-2.932 4.511-1.127 9.21-1.315 13.833-.827 2.895.301 2.857-4.21 0-4.51-5.676-.564-11.465-.075-16.953 1.504-5.45 1.578-6.39 6.276-6.69 11.275-.339 5.374 2.932 9.057 7.743 10.861 2.706 1.015 5.789 1.053 8.645 1.278 3.045.263 6.09.489 9.135.752 2.894.263 2.894-4.247 0-4.472zM222.264 8.156c-.376 4.397-.639 8.832-1.127 13.23-.452 3.908-2.18 7.742-6.579 7.817-1.729.037-3.57-.188-5.224-.677-2.105-.601-2.444-2.819-2.932-4.66-1.128-4.51-1.316-9.208-.827-13.831.3-2.894-4.21-2.856-4.511 0-.564 5.675-.075 11.463 1.504 16.95 1.578 5.45 6.277 6.39 11.276 6.69 5.375.338 9.06-2.931 10.863-7.742 1.015-2.706 1.053-5.788 1.279-8.644.263-3.045.488-6.089.751-9.133.263-2.894-4.247-2.894-4.473 0z"/></g></g></svg>