<?xml version="1.0" encoding="UTF-8"?> <svg xmlns="http://www.w3.org/2000/svg" width="44" height="44" viewBox="0 0 44 44" fill="none"><circle cx="22" cy="22" r="22" fill="#1B7F6D"></circle><path d="M22.9803 9.52319C22.2827 8.8256 21.1498 8.8256 20.4523 9.52319L11.5232 18.4523C10.8256 19.1498 10.8256 20.2827 11.5232 20.9803C12.2208 21.6779 13.3536 21.6779 14.0512 20.9803L19.9333 15.0927V32.2142C19.9333 33.202 20.7313 34 21.7191 34C22.7068 34 23.5049 33.202 23.5049 32.2142V15.0983L29.3869 20.9747C30.0845 21.6723 31.2174 21.6723 31.915 20.9747C32.6125 20.2771 32.6125 19.1443 31.915 18.4467L22.9859 9.51761L22.9803 9.52319Z" fill="white"></path></svg> 