<?xml version="1.0" encoding="UTF-8"?> <svg xmlns="http://www.w3.org/2000/svg" width="120" height="32" fill="none"><path fill="#FF9C23" d="m60.881 1.318-6.554 15.893c-.917 2.152-2.418 3.085-4.67 3.052-1.267 0-2.634-.384-3.651-.967l1.317-3.052c.534.3 1.367.584 2.201.517.65 0 1.234-.3 1.535-.884l.083-.3-7.004-14.242h4.319l4.453 9.606 3.802-9.606h4.169zM72.871 0v1.801c5.02.4 7.988 3.435 7.988 8.272 0 4.752-3.135 7.854-7.988 8.238v1.801H68.87v-1.801c-4.853-.384-7.988-3.485-7.988-8.238 0-4.837 3.218-7.922 7.988-8.272V0zM68.87 5.236c-2.568.35-4.02 2.018-4.02 4.837 0 2.785 1.502 4.486 4.02 4.803zm4.002 9.64c2.602-.384 4.02-2.018 4.02-4.803 0-2.819-1.452-4.536-4.02-4.837zM88.931 1.318v12.558l7.521-12.558h3.919v18.778h-3.835V7.49l-7.522 12.607h-3.8680000000000003V1.318zM108.643 8.89h7.354V1.318H120v18.778h-4.003v-7.704h-7.354v7.704h-4.002V1.318h4.002z"></path><path fill="#fff" d="m51.475 24.264-2.168 3.085c.517.35.934.85 1.267 1.367.45.784.734 1.668.867 2.468h-1.484c-.117-.617-.317-1.284-.667-1.834-.3-.5-.684-.934-1.2-1.167h-.568v3.002h-1.484v-6.921h1.484v2.618h.517l1.785-2.618zM58.646 24.197c2.318 0 3.268 1.685 3.268 3.502 0 1.851-.95 3.552-3.268 3.552s-3.269-1.7-3.269-3.552c0-1.817.95-3.502 3.269-3.502m0 1.284c-1.468 0-1.785 1.134-1.785 2.218 0 1.101.317 2.252 1.785 2.252s1.784-1.151 1.784-2.252c.017-1.084-.3-2.218-1.784-2.218M67.386 27.049h2.701v-2.785h1.468v6.92h-1.468V28.35h-2.702v2.835h-1.467v-6.92h1.467zM75.572 24.264h5.22v1.3h-1.884v5.604H77.44v-5.603h-1.884v-1.301zM84.795 31.185v-6.921h2.818c1.418 0 2.268 1.05 2.285 2.201 0 1.184-.867 2.218-2.285 2.218h-1.35v2.502zm1.468-5.62v1.8h1.35c.567 0 .817-.45.817-.9 0-.434-.25-.9-.817-.9zM97.152 24.197c2.319 0 3.269 1.685 3.269 3.502 0 1.851-.95 3.552-3.269 3.552s-3.268-1.7-3.268-3.552c0-1.817.95-3.502 3.268-3.502m0 1.284c-1.467 0-1.784 1.134-1.784 2.218 0 1.101.317 2.252 1.784 2.252s1.785-1.151 1.785-2.252c.017-1.084-.3-2.218-1.785-2.218M109.092 31.185V25.58h-1.784c-.067 1.218-.184 2.702-.55 3.903-.301 1-.901 1.834-2.252 1.7l-.083-1.35c.55.016.8-.334.934-.717.45-1.518.467-3.302.517-4.853h4.686v6.92zM116.032 24.264v2.551h1.634c1.434 0 2.318.984 2.318 2.185-.016 1.184-.884 2.185-2.318 2.185h-3.102v-6.921zm0 3.852v1.768h1.634c.567 0 .867-.434.867-.884s-.283-.884-.867-.884z"></path><path fill="#fff" fill-rule="evenodd" d="m22.77 24.474 6.393.01v.689h-5.538c.21.344 1.143 1.931 1.51 2.586.155.255.188.533-.056.766s-.555.333-.844.155a2.1 2.1 0 0 1-.632-.588 4.4 4.4 0 0 1-.38-.64 10 10 0 0 0-.142-.27c-.033.166 0 .31.056.455q.095.259.199.512c.11.277.222.553.311.842.1.31.033.644-.3.8-.344.166-.61-.012-.799-.278a5 5 0 0 1-.4-.677c-.07-.14-.13-.284-.19-.427l-.109-.25a.8.8 0 0 0 .003.374v.002l.003.016.002.009a9 9 0 0 0 .102.506c.069.323.138.647.168.98.033.377-.344.632-.766.577-.455-.056-.7-.356-.655-.733.066-.607.123-1.213.18-1.82l.086-.91c-.017 0-.12.466-.256 1.073-.22.983-.52 2.333-.665 2.656-.111.244-.266.355-.422.344-.155.011-.31-.1-.422-.344-.135-.31-.43-1.624-.65-2.604-.142-.632-.253-1.125-.27-1.125l.085.91c.057.607.114 1.213.18 1.82.045.377-.2.666-.654.733-.422.055-.8-.2-.766-.578.034-.38.116-.76.197-1.139l.07-.326c.033-.133.066-.266.01-.421l-.107.248v.001c-.061.144-.122.288-.192.428-.122.233-.244.466-.4.677-.2.266-.466.444-.799.277-.333-.155-.4-.488-.3-.799a9 9 0 0 1 .312-.848q.105-.252.199-.506c.055-.133.1-.277.055-.455q-.06.11-.116.223a4.6 4.6 0 0 1-.405.687c-.178.222-.389.444-.633.588-.288.178-.6.078-.843-.155-.234-.233-.2-.5-.056-.766.248-.43.734-1.26 1.096-1.879l.413-.707h-5.55v-.688l6.383-.011q-.042-.084-.073-.157a1 1 0 0 0-.149-.265c-.133-.155-.377-.533-.655-1.021-.102-.178-.224-.402-.366-.662-.584-1.071-1.512-2.774-2.842-4.577-.207.15-.456.324-.717.505l-.437.305-.055-.033q-.031-.016-.056-.033c.006-.083.015-.166.026-.262.009-.085.02-.18.03-.293-.722.71-1.51.843-2.398.344l.434-.5c.234-.27.464-.537.698-.799a1 1 0 0 0-.055-.122c-1.132 1.01-2.298 1.299-3.574.31l.75-.518.002-.002c.366-.253.72-.499 1.08-.744a.7.7 0 0 0-.056-.134c-1.243.644-2.498.8-3.785.189-.71-.344-1.376-1.032-1.554-1.554q.683-.142 1.365-.288.683-.147 1.365-.289 0-.034.006-.072l.006-.072c-2.331.277-4.085-.422-4.962-2.764.646.103 1.257.196 1.89.292l.996.152c-.272-.133-.536-.251-.79-.365-.554-.249-1.062-.477-1.519-.79C.35 9.768.084 8.969.051 8.026c.843.344 1.609.655 2.497 1.01-.247-.202-.49-.385-.724-.562-.46-.346-.884-.665-1.23-1.048C.04 6.815-.16 6.027.14 5.117q.189.154.373.312c.572.485 1.136.963 1.902 1.164C.661 4.86.15 3.296.96 2.109q.183.266.356.53c.168.254.333.504.51.746.289.389.61.744.966 1.088C1.704 2.553 1.682.699 2.802 0 4.435 4.806 7.51 8.225 12.37 9.99l1.177 1.409q.047-.294.089-.586c.069-.475.137-.94.255-1.39.6-2.242 2.264-3.63 4.65-3.762.356-.023.71-.023 1.077-.023.355 0 .722 0 1.077.023 2.386.133 4.05 1.52 4.65 3.762.117.45.184.911.252 1.375v.001q.044.3.092.6l1.177-1.41C31.727 8.225 34.79 4.806 36.433 0c1.11.7 1.1 2.542.011 4.473.345-.333.678-.7.966-1.088.204-.271.392-.558.586-.853q.136-.21.28-.423c.81 1.187.3 2.752-1.454 4.484.751-.197 1.3-.66 1.864-1.135q.202-.174.411-.341c.289.91.1 1.698-.455 2.308-.368.407-.81.739-1.289 1.099q-.323.24-.664.51l.99-.4c.502-.202.992-.4 1.507-.61-.033.944-.3 1.743-1.021 2.232-.457.312-.965.54-1.519.789-.254.114-.517.232-.79.365l.99-.153.002-.001h.003c.633-.1 1.245-.195 1.891-.29-.877 2.342-2.63 3.041-4.961 2.764q0 .034.005.072t.006.072q.682.141 1.365.289.682.146 1.365.288c-.177.533-.854 1.221-1.554 1.554-1.287.61-2.541.455-3.785-.189a.7.7 0 0 1-.055.134c.433.302.872.604 1.33.92h.001l.001.001.005.003.494.34c-1.265.989-2.442.7-3.574-.31-.01.033-.033.078-.055.122.26.308.527.61.799.92h.001l.332.379c-.877.5-1.665.377-2.397-.344.01.114.02.208.03.292.01.097.02.18.025.263l-.055.033q-.031.016-.056.033l-.436-.305c-.262-.181-.51-.355-.718-.505-1.327 1.79-2.254 3.494-2.838 4.568v.001q-.216.399-.37.67c-.277.488-.521.866-.655 1.021-.061.077-.102.165-.15.27zM33.383 6.943c-.313.31-.634.629-1 .849-.534.322-.789.677-.611 1.287 1.853-.488 3.14-1.987 2.575-3.163l-.158.178-.002.003-.001.001-.001.001c-.203.23-.393.447-.604.65l-.196.192zM31.75 9.5c-.088.033-.155.144-.2.233q-.12.246-.234.494v.001l-.143.304c1.588.133 3.419-.677 3.319-2.164q-.637.264-1.261.52-.747.305-1.48.612m-2.22 2.153c1.677.8 3.874.622 4.218-.91-.414.066-.834.098-1.252.129-1.046.078-2.077.154-2.965.781m2.798 1.166c-.722-.2-1.377-.378-2.031-.555l-.01-.003-.012-.003c-.193-.052-1.37-.37-1.876.094q.213.14.424.286c.662.456 1.334.918 2.24.89.499-.021.92-.221 1.265-.71m-2.287.976-.488-.31c-.688-.456-1.854-1.122-2.065-1.2-.044.067.7 1.3.7 1.3s.233.643.976.843c.744.2 1.51-.21 1.51-.21zM5.17 6.23c-.09-.102-.18-.208-.28-.314-.577 1.176.722 2.675 2.576 3.163.177-.61-.078-.965-.611-1.287-.347-.218-.647-.51-.947-.802q-.125-.122-.252-.242c-.171-.157-.325-.333-.486-.518M4.96 8.452l-.205-.083c-.1 1.487 1.732 2.308 3.319 2.175q-.044-.095-.087-.191a18 18 0 0 0-.29-.619l-.024-.04c-.048-.079-.1-.165-.176-.193-.833-.36-1.676-.7-2.537-1.05m1.745 2.413c-.406-.03-.815-.06-1.217-.121.333 1.543 2.542 1.71 4.218.91-.891-.634-1.939-.71-3-.789m2.235 1.4c-.655.177-1.31.355-2.031.555.344.488.765.688 1.254.699.9.036 1.57-.427 2.228-.883q.217-.152.436-.294c-.496-.453-1.671-.136-1.865-.083zm1.143 2.175c.755-.2.977-.843.977-.843s.732-1.244.71-1.288c-.222.067-1.387.744-2.076 1.188l-.488.31-.633.422s.766.41 1.51.211m8.668 10.622q.004.013.012.022c.388-.41.332-.976-.09-1.343-.465-.4-1.242-.31-1.63.178-.3.377-.223.866.21 1.165q.047-.189.083-.366.023-.12.05-.233h.056c.166.266.344.555.51.832a1.3 1.3 0 0 1 .2-.044q0-.016.006-.028.004-.012.005-.028c.078-.3.155-.588.255-.954.065.147.12.284.174.419q.072.179.148.358.009.009.011.022m3.086-.577q.066.283.133.6c.433-.312.51-.789.211-1.155-.4-.5-1.165-.577-1.632-.178-.421.356-.477.922-.088 1.332q.007-.009.01-.022a28.17 28.17 0 0 0 .333-.8c.1.367.178.656.256.955q0 .017.006.028.004.012.005.028.05.009.1.022t.1.022q.151-.239.295-.478v-.001q.109-.181.215-.353zm-2.187-.067c.788-2.308 2.442-1.243 2.83-.965 2.792-5.521 2.666-6.359 2.6-6.794l-.013-.11v-.011c-.089-.522-.5-1.687-.5-1.687s.3-.478.4-.822c.082-.272.148-1.903.176-2.579.006-.15.01-.254.013-.284a7 7 0 0 0-.267-1.576c-.244-.81-.643-1.476-1.554-1.765l.289-.017.288-.016c-.177-.4-.518-.395-.846-.39a4 4 0 0 1-.186.001c-.14 0-.28.04-.422.08q-.105.03-.21.053l-.028.017-.028.017c.011-.011.022-.034.033-.056.3-.177.6-.355.9-.522-.322-.277-1.92-.31-2.41-.044.049-.111.124-.225.202-.342.085-.13.174-.262.232-.402-.6.134-1.288.666-1.51 1.044-.222-.378-.91-.91-1.51-1.044.059.14.147.273.233.402.078.117.153.23.2.342-.499-.266-2.086-.233-2.408.044q.225.133.45.261t.45.261a.2.2 0 0 1 .032.056l-.027-.017-.028-.017a3 3 0 0 1-.21-.054c-.142-.04-.282-.079-.423-.079q-.09.002-.18 0c-.335-.003-.673-.006-.852.389l.288.016.29.017c-.9.289-1.3.954-1.555 1.765-.166.521-.233 1.043-.266 1.576l.013.285c.03.676.103 2.306.176 2.578.088.345.4.822.4.822s-.422 1.165-.5 1.687v.01l-.018.094c-.09.432-.258 1.226 2.57 6.81.39-.277 2.032-1.342 2.83.966.023.056.034.056.056 0m-.033-15.084c.5-.743 1.277-1.232 2.153-1.232 1.51 0 2.73 1.41 2.742 3.13v1.088c0 1.598-2.187 2.886-4.884 2.897-2.697-.011-4.883-1.299-4.883-2.897v-1.088c0-1.731 1.21-3.13 2.719-3.13.877 0 1.654.489 2.153 1.232m1.432 3.164c-.588-.589-.566-1.743.011-2.287a1.217 1.217 0 0 1 1.754.1q-.09.017-.179.03l-.154.026c.21.355.21.688.01 1.02-.359.593-.92.53-1.5.465l-.086-.01.027.122c.043.189.08.35.117.534m-1.432-.355c-.288.144-.433.388-.732.976.077.455.233 1.033.732 1.454.5-.41.655-.988.733-1.454-.3-.588-.444-.832-.733-.976m-3.041-1.804q-.084-.012-.167-.028c.478-.533 1.266-.566 1.754-.1.577.555.6 1.698.011 2.287.037-.184.074-.345.117-.534l.027-.121-.079.009c-.573.065-1.147.13-1.508-.464-.2-.322-.2-.666.011-1.021z" clip-rule="evenodd"></path></svg> 